<svg version="1.2" xmlns="http://www.w3.org/2000/svg" viewBox="0 0 322 322" width="512" height="512">
	<title>LogoBait-Title-svg</title>
	<style>
		.s0 { fill: #f4f4f4 } 
		.s1 { fill: #000000 } 
	</style>
	<path id="Forma 1" class="s0" d="m304.3 17.7q-17.7-17.7-42.7-17.7h-201.2q-25 0-42.7 17.7-17.7 17.7-17.7 42.7v201.2q0 25 17.7 42.7 17.7 17.7 42.7 17.7h201.2q25 0 42.7-17.7 17.7-17.7 17.7-42.7v-201.2q0-25-17.7-42.7z"/>
	<g id="Layer">
		<path id="Layer" fill-rule="evenodd" class="s1" d="m16 57.8c1.2 0.8 1.6 5.5 2 30l0.5 29.2 4 2 3.9 2 0.3 66.9c0.3 65.7 0.3 66.9 2.3 68.7 1.5 1.5 2.5 1.7 4.7 1l2.8-1 0.4-67.7c0.3-37.3 0.6-67.9 0.8-68 0.1-0.2 1.9-1.1 3.9-1.8 2.1-1 4.1-2.1 4.5-2.8 0.4-0.7 0.8-13.8 0.8-29.3 0-20.3 0.2-28.2 1.2-29 1.7-1.8 5.6-1.4 6.7 0.6 0.7 1.3 1 12.5 1 29.7 0 24.7-0.1 28.2-1.8 31.8-1.1 2.2-3 4.5-4.4 5.4l-2.7 1.4v39.4c-0.1 64.5-0.9 90.8-2.9 94.2-5 8.8-18.4 8.5-24-0.6-1.9-3.2-2-5.2-2-67.5v-64.1l-4.5-4.2-4.5-4.2v-30.9c0-24 0.3-31.1 1.3-31.6 2-0.8 4-0.6 5.7 0.4zm19.9 1.6c1.1 2.6 1.4 42.3 0.5 46-0.9 2.6-4.9 3.9-7 2.2-1.3-1-1.5-5.2-1.5-24.8 0-17 0.3-24 1.2-24.8 2.1-2.2 5.9-1.4 6.8 1.4zm118.1-2.1c3.5 0.6 6.9 3.6 8.5 7.5 0.7 1.6 2.8 3.9 4.6 5 3.9 2.4 4.2 4.5 1.4 9.1-4.3 6.9-1.3 14.2 6.1 15.4 5.3 0.9 7.2 2.8 6.3 6.9-0.6 4 1.5 9.8 4.3 11.3 3.2 1.7 8.4 1.3 11.7-0.9 4.3-2.9 5.6-2.5 9.8 2.5 3.2 3.8 4.3 4.5 7.2 4.5 5.3 0 7.3-1.6 10-7.6 2.6-5.8 3.7-6.3 8.6-3.8 2.4 1.3 4.6 1.5 10.2 0.9 6.7-0.6 7.2-0.5 9.7 2 1.4 1.4 4.2 6.4 6.3 11 25.2 59-9.8 128.3-72.6 143.2-13.3 3.2-35.3 3.1-48.6-0.1-23.3-5.8-42.9-18.3-57.6-36.3-15.3-19.3-23-41.2-23.2-66.9-0.3-28.6 9.9-52.5 31.6-73.9 15-15 34.9-25.5 54.5-28.7 4.5-0.8 9.5-1.3 11.2-1.1zm-15.9 11.4c-29.8 8-54.3 29.6-65.5 57.4-11.5 28.6-8 62.6 8.4 87.8 13.4 20.2 34.2 35.1 57.6 41.3 12.2 3.3 33.8 3.4 45.7 0.1 18-4.8 32.6-13 45.1-25.3 12.3-12.3 21.2-28 25.4-45.4 5-19.6 3-43.3-4.7-60.2l-3.2-6.8h-7.8c-7.4 0-7.8 0.1-9.8 3-5.4 7.5-17.3 9.2-25.6 3.5-3.9-2.6-4.6-2.8-8.5-1.7-8.6 2.1-17.2-1.9-21.1-10-1.4-2.9-2.6-6-2.6-7 0-0.9-1.6-2.6-3.9-3.7-2.2-1.2-5.2-3.7-6.8-5.7-2.5-3.2-2.8-4.7-3.3-13.4-0.4-7.7-0.8-10.3-2.6-12.6-2.6-3.6-7.2-3.9-16.8-1.3zm11.8 29.6c3.7 3.5 1.3 5.8-10.3 10.7-18.2 7.6-30 21.5-34.4 40.9-2.6 11.1-1.7 21.2 3.1 33.3 6.7 16.7 20.6 29.3 38.1 34.4 6.8 2 22.7 2.1 29.7 0.2 20.3-5.3 37-22.5 41.7-42.6 1.9-8.1 1.9-15.6 0-25.7-1.2-5.8-1.3-8.5-0.5-10 1.2-2.2 5.2-2.7 6.8-0.7 3.6 4.3 5.4 26 3.1 36.7-5.3 24.6-24.6 44.9-49.1 51.3-6.6 1.8-25.6 1.8-32 0-29.4-7.9-49-31.5-51.1-61-2.1-29.1 15.8-56.3 44-66.9 7.3-2.7 8.9-2.8 10.9-0.6zm164.1-39.7c0.7 1.4 1 34.2 1 99.5 0 108.8 0.4 101.8-6.8 106.7-6.1 4.1-15.4 2.1-19.2-4.1-1.8-2.9-1.9-5.2-1.7-33.5l0.2-30.4 3-0.3c5.4-0.6 5.6 0.4 5.6 30.8 0 23.8 0.2 27.9 1.6 29.2 2 2.1 4.6 2 6.7-0.2 1.5-1.6 1.6-5.3 1.4-36.1l-0.3-34.3-13.2-0.4c-9.5-0.2-13.3-0.6-14.1-1.6-0.9-0.9-1.1-15.2-0.9-51.5l0.3-50.2 2.8-6c4.3-9.2 10.9-15.1 20-18 6.4-2 12.3-1.8 13.6 0.4zm-9.7 8.1c-4.6 0-12.2 6-15.5 12.5-2.2 3.9-2.2 5-2.5 50.7l-0.3 46.6 19.5-0.6 0.3-54.7c0.2-51.4 0.1-54.5-1.5-54.5z"/>
	</g>
</svg>