<svg version="1.2" xmlns="http://www.w3.org/2000/svg" viewBox="0 0 322 322" width="322" height="322">
	<title>LogoBait-svg</title>
	<style>
		.s0 { fill: #000000 } 
	</style>
	<g id="Layer">
		<path id="Layer" fill-rule="evenodd" class="s0" d="m5.2 50.8c1.3 0.8 1.7 5.9 2.1 32l0.5 31.2 4.3 2.1 4.2 2.2 0.3 71.4c0.3 70.1 0.3 71.4 2.4 73.3 1.7 1.6 2.7 1.8 5.1 1l2.9-1 0.5-72.3c0.3-39.8 0.6-72.5 0.8-72.6 0.1-0.2 2.1-1.1 4.2-1.9 2.2-1 4.4-2.2 4.8-3 0.4-0.7 0.8-14.7 0.8-31.2 0-21.7 0.3-30.1 1.3-31 1.9-1.9 6-1.5 7.2 0.7 0.7 1.3 1.1 13.3 1.1 31.7 0 26.3-0.2 30-2 33.9-1.1 2.3-3.2 4.8-4.7 5.7l-2.9 1.5v42.1c-0.1 68.8-0.9 96.9-3 100.5-5.4 9.4-19.7 9.1-25.7-0.6-2-3.4-2.1-5.5-2.1-72v-68.5l-4.8-4.4-4.8-4.5v-33c0-25.6 0.3-33.2 1.4-33.7 2.1-0.9 4.3-0.7 6.1 0.4zm21.2 1.7c1.2 2.8 1.5 45.1 0.5 49.1-0.9 2.8-5.2 4.2-7.4 2.4-1.4-1.1-1.6-5.6-1.6-26.5 0-18.2 0.3-25.6 1.3-26.5 2.2-2.3 6.2-1.5 7.2 1.5zm126.1-2.2c3.7 0.6 7.3 3.8 9 8 0.8 1.7 3 4.1 4.9 5.3 4.2 2.6 4.5 4.8 1.5 9.7-4.5 7.4-1.4 15.2 6.5 16.4 5.7 1 7.7 3 6.8 7.4-0.7 4.3 1.6 10.5 4.6 12.1 3.4 1.8 8.9 1.4 12.4-1 4.6-3.1 6-2.6 10.5 2.7 3.4 4 4.6 4.8 7.7 4.8 5.6 0 7.8-1.7 10.7-8.1 2.7-6.2 3.9-6.7 9.1-4.1 2.6 1.4 5 1.6 10.9 1 7.2-0.7 7.7-0.5 10.4 2.1 1.5 1.5 4.5 6.8 6.7 11.8 26.9 62.9-10.5 136.9-77.5 152.8-14.2 3.4-37.7 3.3-51.8-0.1-24.9-6.2-45.8-19.5-61.5-38.8-16.4-20.6-24.6-43.9-24.8-71.4-0.3-30.5 10.6-56 33.7-78.8 16.1-16 37.3-27.2 58.2-30.7 4.8-0.8 10.2-1.4 12-1.1zm-17 12.1c-31.8 8.6-58 31.6-69.9 61.3-12.3 30.5-8.6 66.8 9 93.7 14.3 21.6 36.4 37.5 61.4 44.1 13.1 3.5 36.1 3.6 48.8 0.1 19.2-5.1 34.8-13.9 48.1-27 13.2-13.1 22.7-29.9 27.2-48.5 5.3-20.9 3.2-46.2-5.1-64.2l-3.4-7.3h-8.3c-7.9 0-8.3 0.1-10.5 3.2-5.7 8-18.4 9.8-27.3 3.8-4.2-2.8-4.9-3-9.1-1.9-9.1 2.3-18.3-2-22.5-10.6-1.5-3.1-2.8-6.4-2.8-7.5 0-1-1.7-2.8-4.1-4-2.4-1.2-5.6-3.9-7.3-6-2.6-3.5-3-5-3.5-14.3-0.4-8.3-0.9-11-2.8-13.5-2.8-3.8-7.7-4.1-17.9-1.4zm12.6 31.6c3.9 3.8 1.4 6.2-11 11.4-19.4 8.2-32 23-36.7 43.7-2.8 11.8-1.8 22.6 3.3 35.5 7.1 17.9 22 31.3 40.7 36.8 7.2 2.1 24.2 2.2 31.6 0.2 21.7-5.7 39.5-24 44.6-45.5 2-8.6 2-16.6 0-27.4-1.3-6.2-1.4-9.1-0.6-10.7 1.3-2.4 5.6-2.9 7.3-0.7 3.8 4.5 5.7 27.7 3.3 39.1-5.7 26.3-26.3 47.9-52.4 54.8-7.1 1.9-27.3 1.9-34.2 0-31.3-8.5-52.3-33.6-54.5-65.1-2.2-31.1 16.9-60.1 47-71.4 7.7-2.9 9.5-3 11.6-0.7zm175.1-42.3c0.8 1.4 1.1 36.5 1.1 106.2 0 116.1 0.4 108.6-7.3 113.8-6.5 4.4-16.4 2.3-20.5-4.3-1.9-3.1-2-5.6-1.8-35.8l0.3-32.4 3.2-0.4c5.7-0.6 5.9 0.5 5.9 32.9 0 25.4 0.2 29.8 1.7 31.2 2.2 2.2 5 2.1 7.2-0.2 1.6-1.8 1.7-5.7 1.5-38.6l-0.3-36.6-14.1-0.4c-10.2-0.2-14.2-0.6-15.1-1.7-0.9-1-1.1-16.2-0.9-55l0.3-53.6 3-6.4c4.6-9.8 11.6-16.1 21.3-19.2 6.9-2.1 13.1-1.9 14.5 0.5zm-10.3 8.6c-4.9 0-13 6.4-16.6 13.3-2.3 4.2-2.3 5.4-2.6 54.1l-0.4 49.8 20.9-0.7 0.3-58.3c0.2-54.9 0.1-58.2-1.6-58.2z"/>
	</g>
</svg>