<?xml version="1.0" standalone="no"?>
<!DOCTYPE svg PUBLIC "-//W3C//DTD SVG 20010904//EN"
 "http://www.w3.org/TR/2001/REC-SVG-20010904/DTD/svg10.dtd">
<svg version="1.0" xmlns="http://www.w3.org/2000/svg"
 width="776.000000pt" height="322.000000pt" viewBox="0 0 776.000000 322.000000"
 preserveAspectRatio="xMidYMid meet">

<g transform="translate(0.000000,322.000000) scale(0.100000,-0.100000)"
fill="#000000" stroke="none">
<path d="M273 2613 c-10 -4 -13 -76 -13 -316 l0 -311 45 -42 45 -41 0 -644 c0
-625 1 -645 20 -677 56 -91 191 -94 242 -6 19 34 27 298 28 945 l0 396 27 14
c14 8 34 32 44 54 17 36 19 71 19 318 0 173 -4 286 -10 298 -12 21 -50 25 -68
7 -9 -9 -12 -88 -12 -292 0 -155 -4 -286 -8 -293 -4 -7 -24 -19 -45 -28 -20
-8 -38 -16 -39 -18 -2 -1 -5 -308 -8 -682 l-5 -680 -27 -9 c-22 -8 -32 -6 -48
9 -20 18 -20 30 -22 689 l-3 671 -40 21 -40 20 -5 293 c-4 245 -7 293 -20 301
-16 10 -37 12 -57 3z"/>
<path d="M462 2608 c-9 -9 -12 -78 -12 -249 0 -197 2 -239 15 -249 21 -17 61
-4 69 22 10 38 7 435 -4 462 -10 28 -47 35 -68 14z"/>
<path d="M1602 2604 c-196 -33 -395 -138 -547 -289 -217 -214 -319 -454 -317
-740 2 -259 79 -478 234 -671 147 -182 344 -307 578 -365 132 -32 353 -33 487
-1 629 149 981 845 728 1436 -21 47 -49 97 -63 111 -25 25 -30 26 -98 20 -55
-6 -78 -4 -102 9 -49 25 -60 20 -86 -38 -27 -60 -48 -76 -100 -76 -29 0 -41 7
-73 45 -42 50 -55 54 -98 25 -33 -22 -85 -26 -117 -9 -28 15 -50 73 -43 113 8
42 -10 61 -64 70 -74 11 -103 85 -61 154 28 46 25 67 -14 91 -18 12 -39 34
-46 50 -16 40 -50 70 -85 75 -17 3 -68 -2 -113 -10z m122 -117 c17 -23 22 -48
26 -126 5 -88 8 -102 33 -135 16 -20 46 -45 68 -56 23 -12 39 -28 39 -38 0
-10 12 -41 26 -70 40 -81 126 -122 212 -100 39 10 46 8 85 -18 84 -56 203 -39
257 36 21 29 24 30 99 30 l78 0 32 -69 c78 -169 97 -407 48 -603 -43 -175
-132 -333 -256 -456 -125 -123 -272 -206 -452 -254 -120 -33 -336 -32 -459 1
-235 62 -443 212 -577 415 -166 252 -200 594 -85 880 112 280 358 496 657 577
96 25 142 22 169 -14z"/>
<path d="M1565 2197 c-283 -106 -463 -379 -442 -671 21 -296 218 -532 512
-612 65 -18 255 -18 322 0 245 65 439 268 492 515 23 107 5 325 -31 368 -16
20 -56 16 -68 -7 -8 -15 -7 -42 5 -101 19 -101 19 -176 0 -257 -48 -202 -215
-374 -419 -428 -70 -19 -229 -18 -297 2 -176 52 -316 178 -383 346 -48 121
-57 223 -31 334 45 194 163 333 345 410 117 49 140 72 104 108 -20 21 -37 20
-109 -7z"/>
<path d="M3183 2606 c-91 -29 -157 -88 -200 -181 l-28 -60 -3 -504 c-2 -364 0
-507 9 -517 8 -10 46 -14 142 -16 l132 -3 3 -344 c2 -310 1 -346 -14 -363 -21
-22 -47 -23 -68 -2 -14 13 -16 54 -16 293 0 305 -2 315 -55 309 l-30 -3 -3
-305 c-2 -284 -1 -307 17 -336 38 -62 131 -82 192 -41 73 49 69 -21 69 1070 0
655 -3 985 -10 998 -13 23 -72 25 -137 5z m55 -633 l-3 -548 -98 -3 -98 -3 3
468 c3 458 3 469 25 508 34 65 110 125 156 125 16 0 17 -31 15 -547z"/>
<path d="M3860 1605 l0 -675 60 0 60 0 0 91 0 91 58 -59 c85 -89 189 -133 314
-133 232 0 416 145 468 369 20 84 8 232 -24 311 -71 176 -215 276 -412 287
-145 9 -249 -29 -341 -124 l-53 -54 0 286 0 285 -65 0 -65 0 0 -675z m630 152
c79 -29 158 -111 191 -197 19 -52 24 -83 24 -160 0 -85 -3 -102 -31 -160 -42
-90 -84 -134 -162 -172 -62 -31 -74 -33 -167 -33 -87 0 -107 3 -155 26 -70 33
-132 95 -167 167 -26 53 -28 66 -28 177 0 104 3 127 23 169 34 75 84 129 152
165 102 54 206 60 320 18z"/>
<path d="M6199 2266 c-58 -33 -58 -121 1 -151 36 -19 54 -19 89 0 52 26 63
102 21 140 -25 22 -80 28 -111 11z"/>
<path d="M6698 1993 l-3 -108 -82 -3 -83 -3 0 -49 0 -50 85 0 85 0 0 -332 c0
-313 2 -336 21 -378 43 -96 133 -150 248 -150 64 0 145 22 178 48 20 17 20 17
1 60 l-19 42 -42 -22 c-30 -16 -60 -22 -104 -23 -74 0 -107 20 -140 85 -22 43
-23 52 -23 357 l0 313 145 0 145 0 0 50 0 49 -142 3 -143 3 -5 105 -5 105 -57
3 -57 4 -3 -109z"/>
<path d="M5275 1871 c-95 -26 -122 -37 -177 -73 l-48 -30 27 -47 26 -48 49 34
c113 75 298 100 406 53 94 -41 142 -119 142 -232 l0 -55 -202 -6 c-230 -6
-284 -15 -359 -60 -76 -46 -114 -116 -113 -212 0 -84 22 -132 86 -192 65 -59
129 -78 263 -77 138 0 203 23 278 95 28 27 52 49 54 49 2 0 3 -31 3 -70 l0
-70 55 0 56 0 -3 358 -3 357 -33 67 c-59 121 -149 169 -327 174 -86 3 -125 0
-180 -15z m423 -579 c2 -74 0 -89 -22 -125 -34 -59 -72 -92 -141 -123 -75 -35
-193 -39 -267 -11 -146 56 -166 242 -34 310 51 27 129 35 311 33 l150 -1 3
-83z"/>
<path d="M6180 1405 l0 -475 65 0 65 0 0 475 0 475 -65 0 -65 0 0 -475z"/>
</g>
</svg>
