<svg version="1.2" xmlns="http://www.w3.org/2000/svg" viewBox="0 0 322 322" width="322" height="322">
	<title>LogoBait-svg</title>
	<style>
		.s0 { fill: #000000 } 
	</style>
	<path id="Layer" fill-rule="evenodd" class="s0" d="m41 209h9.6v42.2l3.9-4c6.8-7 14.5-9.8 25.2-9.2 14.6 0.9 25.2 8.2 30.5 21.2 2.3 5.9 3.2 16.8 1.7 23-3.8 16.6-17.4 27.3-34.5 27.3-9.3 0-17-3.3-23.2-9.8l-4.3-4.4v13.5h-8.9zm22.9 39.9c-5 2.7-8.7 6.7-11.2 12.2-1.5 3.1-1.7 4.8-1.7 12.5 0 8.2 0.1 9.2 2 13.1 2.6 5.3 7.2 9.9 12.4 12.3 3.5 1.7 5 1.9 11.4 1.9 6.9 0 7.8-0.1 12.4-2.4 5.7-2.8 8.8-6 11.9-12.7 2.1-4.3 2.3-5.5 2.3-11.8 0-5.7-0.3-8-1.7-11.8-2.5-6.4-8.3-12.5-14.1-14.6-8.5-3.1-16.2-2.7-23.7 1.3zm158.1-38.1c3.1 2.8 2.3 8.4-1.5 10.3-2.6 1.5-3.9 1.5-6.6 0-4.4-2.2-4.4-8.7-0.1-11.1 2.3-1.3 6.4-0.8 8.2 0.8zm-63.1 27.3c13.1 0.3 19.8 3.9 24.1 12.8l2.5 5 0.2 26.4 0.2 26.4h-8.2v-5.2c0-2.8-0.1-5.1-0.2-5.1-0.2 0-1.9 1.6-4 3.6-5.6 5.3-10.4 7-20.6 7-9.9 0.1-14.6-1.3-19.4-5.7-4.7-4.4-6.3-8-6.3-14.2-0.1-7.1 2.7-12.2 8.3-15.6 5.5-3.4 9.5-4 26.5-4.5l15-0.4v-4.1c0-8.3-3.6-14.1-10.5-17.1-8-3.5-21.7-1.6-30 3.9l-3.7 2.5-1.9-3.5-2-3.5 3.6-2.2c4-2.7 6-3.5 13.1-5.4 4-1.1 6.9-1.4 13.3-1.1zm17.7 37.7h-11.1c-13.4-0.2-19.2 0.4-23 2.4-9.7 5-8.2 18.8 2.5 22.9 5.5 2.1 14.2 1.8 19.8-0.8 5.1-2.3 7.9-4.7 10.4-9.1 1.6-2.7 1.8-3.8 1.6-9.2zm74.3-53.8l4.3 0.3 4.2 0.3 0.7 15.5 10.6 0.2 10.5 0.2v7.3h-21.5v23.2c0 22.5 0.1 23.2 1.7 26.3 2.5 4.8 4.9 6.3 10.4 6.3 3.2-0.1 5.5-0.5 7.7-1.7l3.1-1.6 1.4 3.1c1.4 3.2 1.4 3.2-0.1 4.4-2.4 2-8.4 3.6-13.1 3.6-8.5 0-15.2-4-18.4-11.1-1.4-3.1-1.5-4.8-1.5-27.9v-24.6h-12.6v-7.3l6.1-0.2 6.1-0.2 0.2-8zm-38.5 17.1h9.6v70.2h-9.6z"/>
	<g id="Layer">
		<path id="Layer" fill-rule="evenodd" class="s0" d="m13.7 9.8c1.2 0.8 1.5 5.4 1.9 28.8l0.5 28 3.8 1.9 3.8 2 0.3 64.2c0.2 63 0.2 64.1 2.1 65.9 1.6 1.4 2.5 1.6 4.6 0.8l2.6-0.8 0.5-65c0.3-35.8 0.5-65.2 0.7-65.3 0.1-0.1 1.9-0.9 3.8-1.7 2-0.8 3.9-2 4.3-2.7 0.3-0.6 0.7-13.1 0.7-28 0-19.5 0.3-27 1.2-27.9 1.7-1.7 5.3-1.3 6.5 0.7 0.6 1.1 0.9 11.9 0.9 28.5 0 23.6-0.2 26.9-1.8 30.4-0.9 2.1-2.8 4.4-4.2 5.1l-2.6 1.4v37.8c-0.1 61.9-0.8 87.1-2.6 90.4-4.9 8.4-17.8 8.1-23.2-0.6-1.8-3-1.9-4.9-1.9-64.7v-61.6l-4.3-3.9-4.3-4v-29.7c0-23 0.3-29.9 1.2-30.3 2-0.8 4-0.6 5.5 0.3zm19.1 5.4c1.1 2.6 1.4 40.5 0.4 44.2-0.8 2.4-4.6 3.7-6.6 2.1-1.2-1-1.4-5-1.4-23.9 0-16.3 0.3-22.9 1.1-23.8 2-2 5.6-1.3 6.5 1.4zm119.2-9.1c3.4 0.5 6.6 3.3 8.2 7.2 0.6 1.5 2.6 3.6 4.4 4.7 3.7 2.3 4 4.3 1.3 8.7-4 6.6-1.2 13.7 5.8 14.8 5.2 0.8 6.9 2.6 6.2 6.7-0.7 3.8 1.4 9.3 4.1 10.8 3 1.6 8 1.2 11.2-0.9 4.1-2.8 5.3-2.4 9.3 2.4 3.1 3.6 4.2 4.3 7 4.3 5 0 7-1.5 9.6-7.3 2.4-5.5 3.5-6 8.2-3.6 2.3 1.2 4.5 1.4 9.7 0.8 6.5-0.5 7-0.4 9.4 2 1.3 1.3 4 6.1 6 10.6 24.2 56.5-9.4 123-69.6 137.3-12.8 3-33.9 2.9-46.5-0.1-22.4-5.6-41.2-17.5-55.3-34.9-14.8-18.5-22.2-39.4-22.4-64.2-0.2-27.3 9.6-50.3 30.3-70.7 14.6-14.5 33.6-24.5 52.3-27.7 4.3-0.7 9.2-1.2 10.8-0.9zm-15.3 10.8c-28.5 7.7-52.1 28.4-62.8 55.2-11 27.3-7.7 60 8.2 84.1 12.8 19.4 32.7 33.7 55.1 39.7 11.8 3.1 32.4 3.2 43.9 0.1 17.2-4.6 31.3-12.6 43.2-24.3 11.9-11.8 20.4-26.9 24.5-43.6 4.7-18.8 2.9-41.5-4.6-57.7l-3.1-6.6h-7.4c-7.2 0-7.5 0.1-9.5 2.9-5.1 7.2-16.5 8.8-24.5 3.4-3.8-2.4-4.4-2.6-8.2-1.7-8.2 2.1-16.4-1.8-20.2-9.5-1.4-2.8-2.5-5.8-2.5-6.7 0-1-1.6-2.5-3.8-3.7-2.1-1-4.9-3.4-6.5-5.3-2.3-3.2-2.6-4.5-3.1-12.9-0.4-7.5-0.9-9.9-2.5-12.1-2.6-3.4-7-3.7-16.2-1.3zm10.3 27.9c3.4 3.5 1.2 5.7-10 10.3-17.4 7.4-28.7 20.7-33 39.2-2.4 10.7-1.6 20.4 3 32 6.4 16 19.8 28.1 36.6 33.1 6.5 1.9 21.7 2 28.4 0.1 19.5-5.1 35.5-21.6 40.1-40.9 1.8-7.7 1.8-14.9 0-24.5-1.2-5.7-1.3-8.3-0.5-9.7 1.2-2.2 5-2.6 6.5-0.7 3.4 4.1 5.2 25 3 35.2-5.1 23.6-23.6 43-47.1 49.3-6.4 1.7-24.5 1.7-30.8 0-28.1-7.7-46.9-30.3-48.9-58.6-2-27.9 15.2-54 42.3-64.1 6.8-2.6 8.5-2.7 10.4-0.7zm164-36c0.7 1.2 1 32.8 1 95.4 0 104.3 0.4 97.6-6.6 102.3-5.8 3.9-14.7 2-18.4-3.9-1.7-2.8-1.8-5-1.6-32.2l0.3-29.1 2.9-0.3c5-0.6 5.2 0.4 5.2 29.5 0 22.9 0.2 26.8 1.6 28.1 2 2 4.5 1.9 6.5-0.2 1.4-1.7 1.5-5.1 1.3-34.7l-0.3-32.9-12.6-0.3c-9.2-0.2-12.8-0.6-13.6-1.5-0.8-1-1-14.7-0.8-49.5l0.2-48.2 2.7-5.7c4.1-8.9 10.4-14.5 19.1-17.3 6.3-1.9 11.9-1.7 13.1 0.5zm-9.2 7.7c-4.4 0-11.7 5.8-14.9 12-2.2 3.7-2.2 4.7-2.4 48.5l-0.3 44.8 18.7-0.6 0.3-52.4c0.2-49.3 0.1-52.3-1.4-52.3z"/>
	</g>
</svg>